<?xml version="1.0" standalone="no"?>
<!DOCTYPE svg PUBLIC "-//W3C//DTD SVG 20010904//EN"
 "http://www.w3.org/TR/2001/REC-SVG-20010904/DTD/svg10.dtd">
<svg version="1.0" xmlns="http://www.w3.org/2000/svg"
 width="256.000000pt" height="256.000000pt" viewBox="0 0 256.000000 256.000000"
 preserveAspectRatio="xMidYMid meet">
<metadata>
Created by potrace 1.11, written by Peter Selinger 2001-2013
</metadata>
<g transform="translate(0.000000,256.000000) scale(0.100000,-0.100000)"
fill="#000000" stroke="none">
<path d="M947 2399 c-9 -6 -27 -12 -40 -14 -52 -10 -255 -125 -335 -189 -50
-41 -163 -163 -204 -221 -79 -112 -106 -175 -88 -205 9 -14 -8 -43 -47 -85
-18 -19 -54 -97 -52 -113 1 -4 0 -9 -1 -12 -6 -16 -21 -174 -23 -235 -1 -55
11 -97 36 -124 21 -23 23 -29 11 -51 -20 -37 -10 -105 32 -211 49 -124 96
-195 139 -210 28 -10 33 -17 31 -38 -1 -14 2 -35 7 -46 18 -37 141 -155 212
-204 87 -60 129 -78 203 -86 48 -6 61 -12 87 -41 30 -33 85 -59 141 -66 16 -1
31 -6 34 -10 7 -9 182 -23 270 -22 261 4 530 103 735 269 64 53 141 130 149
151 7 17 -8 18 -26 1 -18 -17 -275 -165 -290 -167 -4 0 -42 -16 -84 -35 -42
-19 -82 -35 -90 -35 -7 0 -15 -4 -18 -9 -3 -4 -20 -12 -38 -16 -18 -4 -35 -9
-38 -10 -3 -1 -18 -5 -35 -10 -16 -4 -34 -10 -40 -14 -5 -3 -14 -6 -20 -7 -5
-1 -37 -7 -70 -14 -33 -7 -69 -14 -80 -16 -11 -1 -20 -3 -20 -4 0 -2 -30 -8
-85 -16 -76 -11 -100 -12 -100 -5 0 8 56 51 66 51 4 0 15 6 23 14 14 12 307
167 314 165 2 0 21 7 107 41 133 52 362 165 422 207 26 18 50 33 53 33 3 0 27
16 54 35 49 35 69 59 105 125 10 19 21 37 25 40 3 3 14 20 23 37 l17 33 -37
17 c-20 9 -39 20 -42 23 -3 3 -19 12 -36 19 -30 12 -35 10 -80 -21 -100 -70
-404 -236 -404 -220 0 4 -4 2 -8 -3 -8 -12 -75 -44 -102 -49 -3 -1 -9 -4 -15
-8 -26 -16 -351 -134 -393 -143 -9 -2 -29 -8 -44 -14 -16 -6 -28 -8 -28 -5 0
4 -7 1 -15 -6 -9 -7 -18 -10 -21 -7 -3 3 -21 -1 -40 -9 -19 -8 -34 -12 -34 -9
0 3 -8 1 -18 -4 -10 -5 -36 -12 -58 -15 -41 -5 -75 -12 -102 -20 -16 -5 -53
-10 -154 -21 -27 -3 -48 -1 -48 3 0 19 167 162 189 162 6 0 11 5 11 11 0 5 4
8 8 5 8 -5 68 8 102 21 8 3 18 6 21 5 3 0 50 13 105 29 54 17 107 32 116 33
10 1 21 5 24 9 4 4 13 7 20 7 7 0 25 5 41 12 15 6 30 12 33 13 3 1 14 5 25 9
73 27 104 40 135 54 19 8 40 16 45 18 49 9 484 229 505 254 3 3 23 17 45 30
71 43 115 84 115 109 0 10 3 21 8 25 4 4 8 12 8 17 1 5 3 11 4 14 1 3 3 8 4
13 1 4 8 25 14 47 7 22 12 45 12 52 0 11 -36 24 -100 37 -14 3 -40 9 -59 15
-29 9 -38 7 -65 -13 -91 -68 -371 -224 -476 -266 -19 -7 -41 -18 -49 -24 -7
-5 -18 -11 -25 -12 -6 -2 -56 -21 -111 -44 -55 -23 -107 -43 -115 -45 -8 -2
-46 -16 -85 -30 -38 -14 -71 -26 -72 -25 -5 0 -23 -5 -43 -13 -29 -11 -95 -30
-115 -33 -11 -2 -54 -13 -95 -24 -41 -12 -88 -23 -105 -25 -16 -3 -52 -9 -80
-15 -92 -19 -335 -37 -335 -25 0 12 122 124 143 131 9 3 17 10 17 15 0 5 5 9
12 9 6 0 19 7 28 15 18 16 25 18 107 31 26 5 50 9 53 9 5 2 81 18 90 20 46 9
77 19 88 27 6 6 12 8 12 5 0 -14 312 88 465 152 11 5 31 13 45 19 68 28 365
177 368 184 2 4 8 8 13 8 6 0 44 23 86 50 42 28 79 50 83 50 17 0 29 50 26
105 -2 33 -4 79 -5 101 l-1 41 -57 11 c-32 6 -65 10 -73 10 -8 0 -39 3 -67 6
-29 3 -53 2 -53 -2 0 -5 -12 -15 -27 -22 -16 -8 -41 -23 -58 -35 -74 -50 -383
-205 -409 -205 -8 0 -17 -4 -21 -9 -3 -5 -22 -15 -43 -21 -20 -6 -46 -15 -57
-20 -82 -34 -277 -97 -325 -105 -8 -1 -22 -5 -30 -8 -87 -33 -470 -74 -470
-51 0 5 30 29 66 54 35 25 71 51 79 58 7 6 16 12 19 12 3 0 35 18 70 40 98 59
155 85 221 100 33 7 65 17 70 21 11 8 80 22 91 19 4 -1 10 2 13 7 3 4 38 19
76 32 39 13 84 29 100 36 17 7 59 26 95 41 86 37 197 95 293 152 l78 47 -7 65
c-4 36 -8 80 -8 98 -1 36 2 35 -111 33 -38 0 -89 -1 -112 -1 -27 0 -48 -6 -60
-18 -10 -10 -31 -26 -47 -36 -49 -31 -216 -115 -216 -109 0 3 -11 -2 -23 -10
-35 -22 -203 -78 -282 -93 -11 -2 -33 -6 -48 -10 -33 -7 -60 -11 -135 -20
l-54 -6 12 24 c7 12 20 30 29 39 9 9 36 38 60 64 67 70 278 225 309 225 5 0
12 3 14 8 2 4 19 15 38 24 25 12 29 17 15 17 -11 0 -28 -4 -38 -10z"/>
</g>
</svg>
